<mxfile modified="2022-05-02T01:40:35.699Z" host="app.diagrams.net" agent="5.0 (Windows NT 10.0; Win64; x64) AppleWebKit/537.36 (KHTML, like Gecko) Chrome/100.0.4896.127 Safari/537.36 Edg/100.0.1185.50" etag="YT4hRFHSUElneTY_pkcG" compressed="false" version="17.5.0" type="google">
  <diagram id="LD6tzs28sTI-ByqXFtpb" name="System Context/Stakeholder Map">
    <mxGraphModel grid="1" page="1" gridSize="10" guides="1" tooltips="1" connect="1" arrows="1" fold="1" pageScale="1" pageWidth="827" pageHeight="1169" math="0" shadow="0">
      <root>
        <mxCell id="AG6ojbgLePJ8lH-RuyDG-0" />
        <mxCell id="AG6ojbgLePJ8lH-RuyDG-1" value="Diagram" style="" parent="AG6ojbgLePJ8lH-RuyDG-0" />
        <mxCell id="55LUZK9bKvVkk8YtQMWV-75" value="Informed&lt;br style=&quot;font-size: 12px;&quot;&gt;Stakeholders" style="ellipse;whiteSpace=wrap;html=1;aspect=fixed;shadow=0;labelBackgroundColor=none;strokeColor=#666666;strokeWidth=2;fillColor=none;fontSize=12;fontColor=#000000;align=center;verticalAlign=top;" vertex="1" parent="AG6ojbgLePJ8lH-RuyDG-1">
          <mxGeometry x="120" y="180" width="560" height="560" as="geometry" />
        </mxCell>
        <mxCell id="XSSpNiOcb2BPZwE2I5IM-7" value="Secondary/Useful Stakeholders" style="ellipse;whiteSpace=wrap;html=1;aspect=fixed;shadow=0;labelBackgroundColor=none;strokeColor=#666666;strokeWidth=2;fillColor=none;fontSize=12;fontColor=#000000;align=center;verticalAlign=top;" vertex="1" parent="AG6ojbgLePJ8lH-RuyDG-1">
          <mxGeometry x="180" y="240" width="440" height="440" as="geometry" />
        </mxCell>
        <mxCell id="AG6ojbgLePJ8lH-RuyDG-4" value="Primary/Necessary&lt;br style=&quot;font-size: 12px;&quot;&gt;&amp;nbsp;Stakeholders" style="ellipse;whiteSpace=wrap;html=1;aspect=fixed;shadow=0;labelBackgroundColor=none;strokeColor=#666666;strokeWidth=2;fillColor=none;fontSize=12;fontColor=#000000;align=center;verticalAlign=top;" vertex="1" parent="AG6ojbgLePJ8lH-RuyDG-1">
          <mxGeometry x="240" y="300" width="320" height="320" as="geometry" />
        </mxCell>
        <mxCell id="AG6ojbgLePJ8lH-RuyDG-3" value="Vital/Partner&lt;br style=&quot;font-size: 12px;&quot;&gt;Stakeholders" style="ellipse;whiteSpace=wrap;html=1;aspect=fixed;shadow=0;labelBackgroundColor=none;strokeColor=#666666;strokeWidth=2;fillColor=none;fontSize=12;fontColor=#000000;align=center;verticalAlign=top;" vertex="1" parent="AG6ojbgLePJ8lH-RuyDG-1">
          <mxGeometry x="300" y="360" width="200" height="200" as="geometry" />
        </mxCell>
        <mxCell id="XSSpNiOcb2BPZwE2I5IM-0" value="&lt;font style=&quot;font-size: 12px;&quot;&gt;Executive&lt;br style=&quot;font-size: 12px;&quot;&gt;Sponsor&lt;br style=&quot;font-size: 12px;&quot;&gt;&lt;/font&gt;" style="shape=image;html=1;verticalAlign=top;verticalLabelPosition=bottom;labelBackgroundColor=none;imageAspect=0;aspect=fixed;image=https://cdn0.iconfinder.com/data/icons/elasto-online-store/26/00-ELASTOFONT-STORE-READY_user-128.png;shadow=0;strokeColor=#CC6600;strokeWidth=2;fillColor=none;fontSize=12;fontColor=#000000;align=center;" vertex="1" parent="AG6ojbgLePJ8lH-RuyDG-1">
          <mxGeometry x="310" y="470" width="20" height="20" as="geometry" />
        </mxCell>
        <mxCell id="XSSpNiOcb2BPZwE2I5IM-1" value="&lt;font style=&quot;font-size: 12px;&quot;&gt;Project&lt;br style=&quot;font-size: 12px;&quot;&gt;Sponsor&lt;br style=&quot;font-size: 12px;&quot;&gt;&lt;/font&gt;" style="shape=image;html=1;verticalAlign=top;verticalLabelPosition=bottom;labelBackgroundColor=none;imageAspect=0;aspect=fixed;image=https://cdn0.iconfinder.com/data/icons/elasto-online-store/26/00-ELASTOFONT-STORE-READY_user-128.png;shadow=0;strokeColor=#CC6600;strokeWidth=2;fillColor=none;fontSize=12;fontColor=#000000;align=center;" vertex="1" parent="AG6ojbgLePJ8lH-RuyDG-1">
          <mxGeometry x="360" y="470" width="20" height="20" as="geometry" />
        </mxCell>
        <mxCell id="XSSpNiOcb2BPZwE2I5IM-3" value="&lt;font style=&quot;font-size: 12px;&quot;&gt;Program&lt;br style=&quot;font-size: 12px;&quot;&gt;Manager&lt;br style=&quot;font-size: 12px;&quot;&gt;&lt;/font&gt;" style="shape=image;html=1;verticalAlign=top;verticalLabelPosition=bottom;labelBackgroundColor=none;imageAspect=0;aspect=fixed;image=https://cdn0.iconfinder.com/data/icons/elasto-online-store/26/00-ELASTOFONT-STORE-READY_user-128.png;shadow=0;strokeColor=#CC6600;strokeWidth=2;fillColor=none;fontSize=12;fontColor=#000000;align=center;" vertex="1" parent="AG6ojbgLePJ8lH-RuyDG-1">
          <mxGeometry x="410" y="470" width="20" height="20" as="geometry" />
        </mxCell>
        <mxCell id="XSSpNiOcb2BPZwE2I5IM-4" value="&lt;font style=&quot;font-size: 12px;&quot;&gt;Project&lt;br style=&quot;font-size: 12px;&quot;&gt;Manager&lt;br style=&quot;font-size: 12px;&quot;&gt;&lt;/font&gt;" style="shape=image;html=1;verticalAlign=top;verticalLabelPosition=bottom;labelBackgroundColor=none;imageAspect=0;aspect=fixed;image=https://cdn0.iconfinder.com/data/icons/elasto-online-store/26/00-ELASTOFONT-STORE-READY_user-128.png;shadow=0;strokeColor=#CC6600;strokeWidth=2;fillColor=none;fontSize=12;fontColor=#000000;align=center;" vertex="1" parent="AG6ojbgLePJ8lH-RuyDG-1">
          <mxGeometry x="460" y="470" width="20" height="20" as="geometry" />
        </mxCell>
        <mxCell id="55LUZK9bKvVkk8YtQMWV-7" value="&lt;font style=&quot;font-size: 12px;&quot;&gt;Community&lt;br style=&quot;font-size: 12px;&quot;&gt;&lt;/font&gt;" style="shape=image;html=1;verticalAlign=top;verticalLabelPosition=bottom;labelBackgroundColor=none;imageAspect=0;aspect=fixed;image=https://cdn0.iconfinder.com/data/icons/elasto-online-store/26/00-ELASTOFONT-STORE-READY_user-128.png;shadow=0;strokeColor=#CC6600;strokeWidth=2;fillColor=none;fontSize=12;fontColor=#000000;align=center;" vertex="1" parent="AG6ojbgLePJ8lH-RuyDG-1">
          <mxGeometry x="140" y="410" width="20" height="20" as="geometry" />
        </mxCell>
        <mxCell id="55LUZK9bKvVkk8YtQMWV-10" value="&lt;font style=&quot;font-size: 12px;&quot;&gt;Agency&lt;br style=&quot;font-size: 12px;&quot;&gt;&lt;/font&gt;" style="shape=image;html=1;verticalAlign=top;verticalLabelPosition=bottom;labelBackgroundColor=none;imageAspect=0;aspect=fixed;image=https://cdn0.iconfinder.com/data/icons/elasto-online-store/26/00-ELASTOFONT-STORE-READY_user-128.png;shadow=0;strokeColor=#CC6600;strokeWidth=2;fillColor=none;fontSize=12;fontColor=#000000;align=center;" vertex="1" parent="AG6ojbgLePJ8lH-RuyDG-1">
          <mxGeometry x="520" y="410" width="20" height="20" as="geometry" />
        </mxCell>
        <mxCell id="55LUZK9bKvVkk8YtQMWV-11" value="&lt;font style=&quot;font-size: 12px;&quot;&gt;CEO/&lt;br style=&quot;font-size: 12px;&quot;&gt;Secretary&lt;br style=&quot;font-size: 12px;&quot;&gt;&lt;/font&gt;" style="shape=image;html=1;verticalAlign=top;verticalLabelPosition=bottom;labelBackgroundColor=none;imageAspect=0;aspect=fixed;image=https://cdn0.iconfinder.com/data/icons/elasto-online-store/26/00-ELASTOFONT-STORE-READY_user-128.png;shadow=0;strokeColor=#CC6600;strokeWidth=2;fillColor=none;fontSize=12;fontColor=#000000;align=center;" vertex="1" parent="AG6ojbgLePJ8lH-RuyDG-1">
          <mxGeometry x="260" y="470" width="20" height="20" as="geometry" />
        </mxCell>
        <mxCell id="55LUZK9bKvVkk8YtQMWV-15" value="&lt;font style=&quot;font-size: 12px;&quot;&gt;Parents&lt;br style=&quot;font-size: 12px;&quot;&gt;&lt;/font&gt;" style="shape=image;html=1;verticalAlign=top;verticalLabelPosition=bottom;labelBackgroundColor=none;imageAspect=0;aspect=fixed;image=https://cdn0.iconfinder.com/data/icons/elasto-online-store/26/00-ELASTOFONT-STORE-READY_user-128.png;shadow=0;strokeColor=#CC6600;strokeWidth=2;fillColor=none;fontSize=12;fontColor=#000000;align=center;" vertex="1" parent="AG6ojbgLePJ8lH-RuyDG-1">
          <mxGeometry x="250" y="310" width="20" height="20" as="geometry" />
        </mxCell>
        <mxCell id="55LUZK9bKvVkk8YtQMWV-18" value="&lt;font style=&quot;font-size: 12px;&quot;&gt;Family&lt;br style=&quot;font-size: 12px;&quot;&gt;&lt;/font&gt;" style="shape=image;html=1;verticalAlign=top;verticalLabelPosition=bottom;labelBackgroundColor=none;imageAspect=0;aspect=fixed;image=https://cdn0.iconfinder.com/data/icons/elasto-online-store/26/00-ELASTOFONT-STORE-READY_user-128.png;shadow=0;strokeColor=#CC6600;strokeWidth=2;fillColor=none;fontSize=12;fontColor=#000000;align=center;" vertex="1" parent="AG6ojbgLePJ8lH-RuyDG-1">
          <mxGeometry x="220" y="360" width="20" height="20" as="geometry" />
        </mxCell>
        <mxCell id="55LUZK9bKvVkk8YtQMWV-23" value="&lt;font style=&quot;font-size: 12px;&quot;&gt;Students&lt;br style=&quot;font-size: 12px;&quot;&gt;&lt;/font&gt;" style="shape=image;html=1;verticalAlign=top;verticalLabelPosition=bottom;labelBackgroundColor=none;imageAspect=0;aspect=fixed;image=https://cdn0.iconfinder.com/data/icons/elasto-online-store/26/00-ELASTOFONT-STORE-READY_user-128.png;shadow=0;strokeColor=#CC6600;strokeWidth=2;fillColor=none;fontSize=12;fontColor=#000000;align=center;" vertex="1" parent="AG6ojbgLePJ8lH-RuyDG-1">
          <mxGeometry x="280" y="360" width="20" height="20" as="geometry" />
        </mxCell>
        <mxCell id="55LUZK9bKvVkk8YtQMWV-24" value="&lt;font style=&quot;font-size: 12px;&quot;&gt;Minister&lt;br style=&quot;font-size: 12px;&quot;&gt;&lt;/font&gt;" style="shape=image;html=1;verticalAlign=top;verticalLabelPosition=bottom;labelBackgroundColor=none;imageAspect=0;aspect=fixed;image=https://cdn0.iconfinder.com/data/icons/elasto-online-store/26/00-ELASTOFONT-STORE-READY_user-128.png;shadow=0;strokeColor=#CC6600;strokeWidth=2;fillColor=none;fontSize=12;fontColor=#000000;align=center;" vertex="1" parent="AG6ojbgLePJ8lH-RuyDG-1">
          <mxGeometry x="260" y="410" width="20" height="20" as="geometry" />
        </mxCell>
        <mxCell id="55LUZK9bKvVkk8YtQMWV-25" value="&lt;font style=&quot;font-size: 12px;&quot;&gt;CDO&lt;br style=&quot;font-size: 12px;&quot;&gt;&lt;/font&gt;" style="shape=image;html=1;verticalAlign=top;verticalLabelPosition=bottom;labelBackgroundColor=none;imageAspect=0;aspect=fixed;image=https://cdn0.iconfinder.com/data/icons/elasto-online-store/26/00-ELASTOFONT-STORE-READY_user-128.png;shadow=0;strokeColor=#CC6600;strokeWidth=2;fillColor=none;fontSize=12;fontColor=#000000;align=center;" vertex="1" parent="AG6ojbgLePJ8lH-RuyDG-1">
          <mxGeometry x="500" y="500" width="20" height="20" as="geometry" />
        </mxCell>
        <mxCell id="55LUZK9bKvVkk8YtQMWV-26" value="&lt;font style=&quot;font-size: 12px;&quot;&gt;Peak&lt;br style=&quot;font-size: 12px;&quot;&gt;Bodies&lt;br style=&quot;font-size: 12px;&quot;&gt;&lt;/font&gt;" style="shape=image;html=1;verticalAlign=top;verticalLabelPosition=bottom;labelBackgroundColor=none;imageAspect=0;aspect=fixed;image=https://cdn0.iconfinder.com/data/icons/elasto-online-store/26/00-ELASTOFONT-STORE-READY_user-128.png;shadow=0;strokeColor=#CC6600;strokeWidth=2;fillColor=none;fontSize=12;fontColor=#000000;align=center;" vertex="1" parent="AG6ojbgLePJ8lH-RuyDG-1">
          <mxGeometry x="460" y="260" width="20" height="20" as="geometry" />
        </mxCell>
        <mxCell id="55LUZK9bKvVkk8YtQMWV-27" value="&lt;font style=&quot;font-size: 12px;&quot;&gt;C&amp;amp;A&lt;br style=&quot;font-size: 12px;&quot;&gt;&lt;/font&gt;" style="shape=image;html=1;verticalAlign=top;verticalLabelPosition=bottom;labelBackgroundColor=none;imageAspect=0;aspect=fixed;image=https://cdn0.iconfinder.com/data/icons/elasto-online-store/26/00-ELASTOFONT-STORE-READY_user-128.png;shadow=0;strokeColor=#CC6600;strokeWidth=2;fillColor=none;fontSize=12;fontColor=#000000;align=center;" vertex="1" parent="AG6ojbgLePJ8lH-RuyDG-1">
          <mxGeometry x="570" y="470" width="20" height="20" as="geometry" />
        </mxCell>
        <mxCell id="55LUZK9bKvVkk8YtQMWV-29" value="&lt;font style=&quot;font-size: 12px;&quot;&gt;Professional&lt;br style=&quot;font-size: 12px;&quot;&gt;Bodies&lt;br style=&quot;font-size: 12px;&quot;&gt;&lt;/font&gt;" style="shape=image;html=1;verticalAlign=top;verticalLabelPosition=bottom;labelBackgroundColor=none;imageAspect=0;aspect=fixed;image=https://cdn0.iconfinder.com/data/icons/elasto-online-store/26/00-ELASTOFONT-STORE-READY_user-128.png;shadow=0;strokeColor=#CC6600;strokeWidth=2;fillColor=none;fontSize=12;fontColor=#000000;align=center;" vertex="1" parent="AG6ojbgLePJ8lH-RuyDG-1">
          <mxGeometry x="600" y="300" width="20" height="20" as="geometry" />
        </mxCell>
        <mxCell id="55LUZK9bKvVkk8YtQMWV-34" value="&lt;font style=&quot;font-size: 12px;&quot;&gt;Customer&lt;br style=&quot;font-size: 12px;&quot;&gt;Support&lt;br style=&quot;font-size: 12px;&quot;&gt;&lt;/font&gt;" style="shape=image;html=1;verticalAlign=top;verticalLabelPosition=bottom;labelBackgroundColor=none;imageAspect=0;aspect=fixed;image=https://cdn0.iconfinder.com/data/icons/elasto-online-store/26/00-ELASTOFONT-STORE-READY_user-128.png;shadow=0;strokeColor=#CC6600;strokeWidth=2;fillColor=none;fontSize=12;fontColor=#000000;align=center;" vertex="1" parent="AG6ojbgLePJ8lH-RuyDG-1">
          <mxGeometry x="200" y="470" width="20" height="20" as="geometry" />
        </mxCell>
        <mxCell id="55LUZK9bKvVkk8YtQMWV-54" value="&lt;font style=&quot;font-size: 12px;&quot;&gt;Dev &lt;br style=&quot;font-size: 12px;&quot;&gt;Vendor&lt;br style=&quot;font-size: 12px;&quot;&gt;&lt;/font&gt;" style="shape=image;html=1;verticalAlign=top;verticalLabelPosition=bottom;labelBackgroundColor=none;imageAspect=0;aspect=fixed;image=https://cdn0.iconfinder.com/data/icons/elasto-online-store/26/00-ELASTOFONT-STORE-READY_user-128.png;shadow=0;strokeColor=#CC6600;strokeWidth=2;fillColor=none;fontSize=12;fontColor=#000000;align=center;" vertex="1" parent="AG6ojbgLePJ8lH-RuyDG-1">
          <mxGeometry x="330" y="400" width="20" height="20" as="geometry" />
        </mxCell>
        <mxCell id="55LUZK9bKvVkk8YtQMWV-58" value="&lt;font style=&quot;font-size: 12px;&quot;&gt;System&lt;br style=&quot;font-size: 12px;&quot;&gt;Integrators&lt;br style=&quot;font-size: 12px;&quot;&gt;&lt;/font&gt;" style="shape=image;html=1;verticalAlign=top;verticalLabelPosition=bottom;labelBackgroundColor=none;imageAspect=0;aspect=fixed;image=https://cdn0.iconfinder.com/data/icons/elasto-online-store/26/00-ELASTOFONT-STORE-READY_user-128.png;shadow=0;strokeColor=#CC6600;strokeWidth=2;fillColor=none;fontSize=12;fontColor=#000000;align=center;" vertex="1" parent="AG6ojbgLePJ8lH-RuyDG-1">
          <mxGeometry x="510" y="210" width="20" height="20" as="geometry" />
        </mxCell>
        <mxCell id="55LUZK9bKvVkk8YtQMWV-60" value="&lt;font style=&quot;font-size: 12px;&quot;&gt;Suppliers&lt;br style=&quot;font-size: 12px;&quot;&gt;&lt;/font&gt;" style="shape=image;html=1;verticalAlign=top;verticalLabelPosition=bottom;labelBackgroundColor=none;imageAspect=0;aspect=fixed;image=https://cdn0.iconfinder.com/data/icons/elasto-online-store/26/00-ELASTOFONT-STORE-READY_user-128.png;shadow=0;strokeColor=#CC6600;strokeWidth=2;fillColor=none;fontSize=12;fontColor=#000000;align=center;" vertex="1" parent="AG6ojbgLePJ8lH-RuyDG-1">
          <mxGeometry x="550" y="360" width="20" height="20" as="geometry" />
        </mxCell>
        <mxCell id="55LUZK9bKvVkk8YtQMWV-61" value="&lt;font style=&quot;font-size: 12px;&quot;&gt;Distributors&lt;br style=&quot;font-size: 12px;&quot;&gt;&lt;/font&gt;" style="shape=image;html=1;verticalAlign=top;verticalLabelPosition=bottom;labelBackgroundColor=none;imageAspect=0;aspect=fixed;image=https://cdn0.iconfinder.com/data/icons/elasto-online-store/26/00-ELASTOFONT-STORE-READY_user-128.png;shadow=0;strokeColor=#CC6600;strokeWidth=2;fillColor=none;fontSize=12;fontColor=#000000;align=center;" vertex="1" parent="AG6ojbgLePJ8lH-RuyDG-1">
          <mxGeometry x="520" y="300" width="20" height="20" as="geometry" />
        </mxCell>
        <mxCell id="55LUZK9bKvVkk8YtQMWV-62" value="&lt;font style=&quot;font-size: 12px;&quot;&gt;Teachers&lt;br style=&quot;font-size: 12px;&quot;&gt;&lt;/font&gt;" style="shape=image;html=1;verticalAlign=top;verticalLabelPosition=bottom;labelBackgroundColor=none;imageAspect=0;aspect=fixed;image=https://cdn0.iconfinder.com/data/icons/elasto-online-store/26/00-ELASTOFONT-STORE-READY_user-128.png;shadow=0;strokeColor=#CC6600;strokeWidth=2;fillColor=none;fontSize=12;fontColor=#000000;align=center;" vertex="1" parent="AG6ojbgLePJ8lH-RuyDG-1">
          <mxGeometry x="330" y="320" width="20" height="20" as="geometry" />
        </mxCell>
        <mxCell id="55LUZK9bKvVkk8YtQMWV-63" value="&lt;font style=&quot;font-size: 12px;&quot;&gt;Tool&lt;br style=&quot;font-size: 12px;&quot;&gt;Devs&lt;br style=&quot;font-size: 12px;&quot;&gt;&lt;/font&gt;" style="shape=image;html=1;verticalAlign=top;verticalLabelPosition=bottom;labelBackgroundColor=none;imageAspect=0;aspect=fixed;image=https://cdn0.iconfinder.com/data/icons/elasto-online-store/26/00-ELASTOFONT-STORE-READY_user-128.png;shadow=0;strokeColor=#CC6600;strokeWidth=2;fillColor=none;fontSize=12;fontColor=#000000;align=center;" vertex="1" parent="AG6ojbgLePJ8lH-RuyDG-1">
          <mxGeometry x="574" y="405" width="20" height="20" as="geometry" />
        </mxCell>
        <mxCell id="55LUZK9bKvVkk8YtQMWV-65" value="&lt;font style=&quot;font-size: 12px;&quot;&gt;Competitors&lt;br style=&quot;font-size: 12px;&quot;&gt;&lt;/font&gt;" style="shape=image;html=1;verticalAlign=top;verticalLabelPosition=bottom;labelBackgroundColor=none;imageAspect=0;aspect=fixed;image=https://cdn0.iconfinder.com/data/icons/elasto-online-store/26/00-ELASTOFONT-STORE-READY_user-128.png;shadow=0;strokeColor=#CC6600;strokeWidth=2;fillColor=none;fontSize=12;fontColor=#000000;align=center;" vertex="1" parent="AG6ojbgLePJ8lH-RuyDG-1">
          <mxGeometry x="640" y="240" width="20" height="20" as="geometry" />
        </mxCell>
        <mxCell id="55LUZK9bKvVkk8YtQMWV-67" value="&lt;font style=&quot;font-size: 12px;&quot;&gt;Deputy&lt;br style=&quot;font-size: 12px;&quot;&gt;Secretary/&lt;br style=&quot;font-size: 12px;&quot;&gt;VP&lt;br style=&quot;font-size: 12px;&quot;&gt;&lt;/font&gt;" style="shape=image;html=1;verticalAlign=top;verticalLabelPosition=bottom;labelBackgroundColor=none;imageAspect=0;aspect=fixed;image=https://cdn0.iconfinder.com/data/icons/elasto-online-store/26/00-ELASTOFONT-STORE-READY_user-128.png;shadow=0;strokeColor=#CC6600;strokeWidth=2;fillColor=none;fontSize=12;fontColor=#000000;align=center;" vertex="1" parent="AG6ojbgLePJ8lH-RuyDG-1">
          <mxGeometry x="320" y="540" width="20" height="20" as="geometry" />
        </mxCell>
        <mxCell id="1hMV_P8PKeL6gi6si9hS-1" value="" style="line;strokeWidth=1;fillColor=none;align=left;verticalAlign=middle;spacingTop=-1;spacingLeft=3;spacingRight=3;rotatable=0;labelPosition=right;points=[];portConstraint=eastwest;fontSize=12;shadow=0;labelBackgroundColor=none;html=1;" vertex="1" parent="AG6ojbgLePJ8lH-RuyDG-1">
          <mxGeometry x="120" y="457" width="560" height="8" as="geometry" />
        </mxCell>
        <mxCell id="55LUZK9bKvVkk8YtQMWV-0" value="&lt;b style=&quot;font-size: 12px;&quot;&gt;Internal&lt;/b&gt;" style="rounded=1;align=center;fillColor=#F1F2F4;strokeColor=none;html=1;fontColor=#596780;fontSize=12;shadow=0;labelBackgroundColor=none;rotation=-90;" vertex="1" parent="AG6ojbgLePJ8lH-RuyDG-1">
          <mxGeometry x="70" y="670" width="120" height="20" as="geometry" />
        </mxCell>
        <mxCell id="55LUZK9bKvVkk8YtQMWV-4" value="&lt;b style=&quot;font-size: 12px;&quot;&gt;External&lt;/b&gt;" style="rounded=1;align=center;fillColor=#F1F2F4;strokeColor=none;html=1;fontColor=#596780;fontSize=12;shadow=0;labelBackgroundColor=none;rotation=-90;" vertex="1" parent="AG6ojbgLePJ8lH-RuyDG-1">
          <mxGeometry x="70" y="240" width="120" height="20" as="geometry" />
        </mxCell>
        <mxCell id="55LUZK9bKvVkk8YtQMWV-38" value="&lt;font style=&quot;font-size: 12px;&quot;&gt;Web&lt;br style=&quot;font-size: 12px;&quot;&gt;Services&lt;br style=&quot;font-size: 12px;&quot;&gt;&lt;/font&gt;" style="shape=image;html=1;verticalAlign=top;verticalLabelPosition=bottom;labelBackgroundColor=none;imageAspect=0;aspect=fixed;image=https://cdn0.iconfinder.com/data/icons/elasto-online-store/26/00-ELASTOFONT-STORE-READY_user-128.png;shadow=0;strokeColor=#CC6600;strokeWidth=2;fillColor=none;fontSize=12;fontColor=#000000;align=center;" vertex="1" parent="AG6ojbgLePJ8lH-RuyDG-1">
          <mxGeometry x="460" y="620" width="20" height="20" as="geometry" />
        </mxCell>
        <mxCell id="55LUZK9bKvVkk8YtQMWV-43" value="&lt;font style=&quot;font-size: 12px;&quot;&gt;Change&lt;br style=&quot;font-size: 12px;&quot;&gt;Control&lt;br style=&quot;font-size: 12px;&quot;&gt;&lt;/font&gt;" style="shape=image;html=1;verticalAlign=top;verticalLabelPosition=bottom;labelBackgroundColor=none;imageAspect=0;aspect=fixed;image=https://cdn0.iconfinder.com/data/icons/elasto-online-store/26/00-ELASTOFONT-STORE-READY_user-128.png;shadow=0;strokeColor=#CC6600;strokeWidth=2;fillColor=none;fontSize=12;fontColor=#000000;align=center;" vertex="1" parent="AG6ojbgLePJ8lH-RuyDG-1">
          <mxGeometry x="560" y="531" width="20" height="20" as="geometry" />
        </mxCell>
        <mxCell id="55LUZK9bKvVkk8YtQMWV-44" value="&lt;font style=&quot;font-size: 12px;&quot;&gt;Training&lt;br style=&quot;font-size: 12px;&quot;&gt;&lt;/font&gt;" style="shape=image;html=1;verticalAlign=top;verticalLabelPosition=bottom;labelBackgroundColor=none;imageAspect=0;aspect=fixed;image=https://cdn0.iconfinder.com/data/icons/elasto-online-store/26/00-ELASTOFONT-STORE-READY_user-128.png;shadow=0;strokeColor=#CC6600;strokeWidth=2;fillColor=none;fontSize=12;fontColor=#000000;align=center;" vertex="1" parent="AG6ojbgLePJ8lH-RuyDG-1">
          <mxGeometry x="230" y="540" width="20" height="20" as="geometry" />
        </mxCell>
        <mxCell id="55LUZK9bKvVkk8YtQMWV-48" value="&lt;font style=&quot;font-size: 12px;&quot;&gt;Testing&lt;br style=&quot;font-size: 12px;&quot;&gt;&lt;/font&gt;" style="shape=image;html=1;verticalAlign=top;verticalLabelPosition=bottom;labelBackgroundColor=none;imageAspect=0;aspect=fixed;image=https://cdn0.iconfinder.com/data/icons/elasto-online-store/26/00-ELASTOFONT-STORE-READY_user-128.png;shadow=0;strokeColor=#CC6600;strokeWidth=2;fillColor=none;fontSize=12;fontColor=#000000;align=center;" vertex="1" parent="AG6ojbgLePJ8lH-RuyDG-1">
          <mxGeometry x="270" y="589.5" width="20" height="20" as="geometry" />
        </mxCell>
        <mxCell id="55LUZK9bKvVkk8YtQMWV-49" value="&lt;font style=&quot;font-size: 12px;&quot;&gt;Cloud&lt;br style=&quot;font-size: 12px;&quot;&gt;Services&lt;br style=&quot;font-size: 12px;&quot;&gt;&lt;/font&gt;" style="shape=image;html=1;verticalAlign=top;verticalLabelPosition=bottom;labelBackgroundColor=none;imageAspect=0;aspect=fixed;image=https://cdn0.iconfinder.com/data/icons/elasto-online-store/26/00-ELASTOFONT-STORE-READY_user-128.png;shadow=0;strokeColor=#CC6600;strokeWidth=2;fillColor=none;fontSize=12;fontColor=#000000;align=center;" vertex="1" parent="AG6ojbgLePJ8lH-RuyDG-1">
          <mxGeometry x="380" y="630" width="20" height="20" as="geometry" />
        </mxCell>
        <mxCell id="55LUZK9bKvVkk8YtQMWV-55" value="&lt;font style=&quot;font-size: 12px;&quot;&gt;Security&lt;br style=&quot;font-size: 12px;&quot;&gt;&lt;/font&gt;" style="shape=image;html=1;verticalAlign=top;verticalLabelPosition=bottom;labelBackgroundColor=none;imageAspect=0;aspect=fixed;image=https://cdn0.iconfinder.com/data/icons/elasto-online-store/26/00-ELASTOFONT-STORE-READY_user-128.png;shadow=0;strokeColor=#CC6600;strokeWidth=2;fillColor=none;fontSize=12;fontColor=#000000;align=center;" vertex="1" parent="AG6ojbgLePJ8lH-RuyDG-1">
          <mxGeometry x="510" y="589.5" width="20" height="20" as="geometry" />
        </mxCell>
        <mxCell id="ETI6sSULLuqo6MPz5FEn-0" value="&lt;font style=&quot;font-size: 12px&quot;&gt;OnPrem&lt;br&gt;(Infrastructure)&lt;br&gt;Operations&lt;br style=&quot;font-size: 12px&quot;&gt;Services&lt;br style=&quot;font-size: 12px&quot;&gt;&lt;/font&gt;" style="shape=image;html=1;verticalAlign=top;verticalLabelPosition=bottom;labelBackgroundColor=none;imageAspect=0;aspect=fixed;image=https://cdn0.iconfinder.com/data/icons/elasto-online-store/26/00-ELASTOFONT-STORE-READY_user-128.png;shadow=0;strokeColor=#CC6600;strokeWidth=2;fillColor=none;fontSize=12;fontColor=#000000;align=center;" vertex="1" parent="AG6ojbgLePJ8lH-RuyDG-1">
          <mxGeometry x="320" y="630" width="20" height="20" as="geometry" />
        </mxCell>
        <mxCell id="NZA3RxuKYHD427RJL7i8-0" value="&lt;font style=&quot;font-size: 12px&quot;&gt;Regional&amp;nbsp;&lt;br&gt;Directors&lt;br style=&quot;font-size: 12px&quot;&gt;&lt;/font&gt;" style="shape=image;html=1;verticalAlign=top;verticalLabelPosition=bottom;labelBackgroundColor=none;imageAspect=0;aspect=fixed;image=https://cdn0.iconfinder.com/data/icons/elasto-online-store/26/00-ELASTOFONT-STORE-READY_user-128.png;shadow=0;strokeColor=#CC6600;strokeWidth=2;fillColor=none;fontSize=12;fontColor=#000000;align=center;" vertex="1" parent="AG6ojbgLePJ8lH-RuyDG-1">
          <mxGeometry x="350" y="260" width="20" height="20" as="geometry" />
        </mxCell>
        <mxCell id="R1f23arfC69eGrNI_NES-0" value="Title/Diagram" parent="AG6ojbgLePJ8lH-RuyDG-0" />
        <mxCell id="R1f23arfC69eGrNI_NES-1" value="&lt;font style=&quot;font-size: 12px&quot;&gt;&lt;span&gt;Diagram: &lt;/span&gt;System Context - Stakeholders Type Map&lt;/font&gt;" style="text;strokeColor=none;fillColor=none;html=1;fontSize=12;fontStyle=2;verticalAlign=middle;align=left;shadow=0;glass=0;comic=0;opacity=30;fontColor=#808080;" vertex="1" parent="R1f23arfC69eGrNI_NES-0">
          <mxGeometry x="120" y="780" width="520" height="20" as="geometry" />
        </mxCell>
      </root>
    </mxGraphModel>
  </diagram>
</mxfile>
